<svg width="550" height="500" viewBox="0 0 550 500" fill="none" xmlns="http://www.w3.org/2000/svg">
<path d="M482.206 141.646L471.787 137.498L471.786 137.497C471.108 134.435 470.102 131.483 468.819 128.705L474.388 118.506C475.331 116.779 475.111 114.614 473.843 113.135L468.988 107.472C467.709 105.981 465.658 105.527 463.914 106.349L453.737 111.144L453.73 111.143C451.231 109.509 448.552 108.157 445.719 107.123L442.777 95.7799C442.279 93.8607 440.663 92.4919 438.767 92.3864L431.515 91.9812C429.605 91.8745 427.849 93.0743 427.17 94.948L423.208 105.883C423.207 105.883 423.206 105.883 423.205 105.883C420.283 106.586 417.482 107.632 414.832 108.979C414.83 108.98 414.828 108.981 414.827 108.982L405.095 103.142C403.448 102.154 401.382 102.385 399.971 103.715L394.569 108.804C393.146 110.144 392.714 112.294 393.497 114.122L398.066 124.777C396.508 127.404 395.217 130.219 394.231 133.197L383.415 136.279C381.584 136.802 380.279 138.496 380.178 140.483L379.791 148.085C379.69 150.087 380.834 151.929 382.622 152.64L393.039 156.787C393.039 156.789 393.04 156.79 393.04 156.79C393.718 159.853 394.724 162.806 396.007 165.583L390.439 175.78C389.496 177.507 389.716 179.672 390.985 181.152L395.84 186.814C397.118 188.305 399.169 188.759 400.913 187.937L411.087 183.143C413.586 184.777 416.264 186.129 419.098 187.154L419.106 187.154L422.05 198.505C422.548 200.425 424.165 201.793 426.06 201.899L433.313 202.304C435.222 202.411 436.979 201.212 437.658 199.337L441.616 188.413C441.617 188.412 441.619 188.412 441.621 188.412C444.543 187.701 447.352 186.654 449.994 185.307C449.997 185.306 449.999 185.304 450.002 185.303L459.734 191.143C461.38 192.131 463.446 191.9 464.858 190.571L470.259 185.481C471.682 184.141 472.115 181.991 471.331 180.163L466.762 169.508C468.32 166.881 469.609 164.066 470.595 161.089L481.413 158.005C483.244 157.484 484.549 155.789 484.65 153.802L485.036 146.199C485.138 144.199 483.993 142.358 482.206 141.646ZM430.878 177.406C414.936 176.515 402.699 162.243 403.549 145.531C404.399 128.82 418.013 115.992 433.956 116.883C449.899 117.773 462.127 132.045 461.277 148.756C460.427 165.469 446.821 178.296 430.878 177.406Z" fill="#C2E5FF"/>
<path d="M433.251 130.661C424.567 130.175 417.151 137.162 416.689 146.266C416.226 155.37 422.891 163.142 431.575 163.628C440.259 164.113 447.675 157.127 448.138 148.023C448.6 138.918 441.935 131.146 433.251 130.661Z" fill="#C2E5FF"/>
<path d="M508.439 50.6155L502.722 48.3395V48.3384C502.349 46.6582 501.797 45.0381 501.093 43.5142L504.149 37.9176C504.666 36.9703 504.546 35.7822 503.85 34.9701L501.186 31.8628C500.484 31.0449 499.359 30.7954 498.402 31.2466L492.818 33.8782H492.814C491.442 32.9815 489.972 32.2394 488.417 31.6722L486.803 25.4477C486.529 24.3942 485.642 23.6434 484.603 23.5857L480.623 23.363C479.575 23.3047 478.612 23.9628 478.239 24.9912L476.065 30.9918L476.063 30.9924C474.46 31.3778 472.923 31.952 471.469 32.6912C471.467 32.6918 471.466 32.6924 471.465 32.693L466.125 29.4883C465.222 28.9461 464.088 29.0727 463.313 29.8025L460.349 32.5956C459.568 33.3307 459.331 34.5107 459.761 35.514L462.268 41.3607C461.413 42.8024 460.705 44.3473 460.164 45.9814L454.228 47.6732C453.224 47.9594 452.507 48.8893 452.452 49.9795L452.24 54.1518C452.184 55.2502 452.812 56.2611 453.793 56.6511L459.51 58.927L459.51 58.9288C459.882 60.6089 460.434 62.2296 461.138 63.7535L458.082 69.3489C457.565 70.2963 457.686 71.485 458.382 72.2971L461.047 75.4043C461.748 76.2223 462.874 76.4712 463.831 76.0205L469.414 73.3896C470.785 74.2862 472.254 75.0283 473.81 75.5903H473.814L475.43 81.8194C475.703 82.8729 476.59 83.6238 477.63 83.6815L481.61 83.9042C482.658 83.9625 483.622 83.3049 483.994 82.2759L486.166 76.2811C486.167 76.2811 486.169 76.2806 486.169 76.2806C487.773 75.89 489.314 75.3163 490.764 74.5771C490.765 74.5765 490.766 74.5753 490.768 74.5748L496.108 77.7794C497.011 78.3216 498.145 78.1951 498.919 77.4652L501.884 74.6721C502.664 73.937 502.902 72.757 502.471 71.7537L499.964 65.907C500.819 64.4653 501.527 62.921 502.068 61.2869L508.004 59.5951C509.009 59.3089 509.725 58.379 509.78 57.2888L509.992 53.1165C510.048 52.0164 509.42 51.0061 508.439 50.6155ZM480.273 70.2386C471.525 69.7494 464.81 61.9183 465.276 52.7474C465.743 43.5766 473.213 36.5377 481.962 37.0262C490.71 37.5148 497.421 45.3465 496.954 54.5174C496.488 63.6882 489.022 70.7277 480.273 70.2386Z" fill="#C2E5FF"/>
<path d="M481.576 44.5873C476.81 44.3209 472.741 48.1546 472.487 53.1507C472.233 58.1462 475.891 62.4119 480.656 62.6783C485.422 62.9447 489.491 59.1111 489.745 54.1149C489.999 49.1194 486.342 44.8537 481.576 44.5873Z" fill="#C2E5FF"/>
<path d="M113.709 381.092L106.468 377.372V377.371C106.175 375.118 105.639 372.92 104.892 370.829L109.556 363.873C110.345 362.695 110.325 361.12 109.506 359.965L106.37 355.544C105.544 354.381 104.096 353.909 102.786 354.379L95.149 357.119L95.144 357.118C93.4484 355.766 91.6053 354.603 89.63 353.66L88.2352 345.282C87.9988 343.864 86.9216 342.765 85.5635 342.555L80.3648 341.754C78.9956 341.543 77.6536 342.284 77.0446 343.587L73.492 351.186L73.4898 351.187C71.3398 351.488 69.2554 352.045 67.26 352.829C67.2583 352.83 67.2572 352.83 67.2556 352.831L60.6181 347.941C59.4947 347.113 57.9915 347.135 56.8898 347.993L52.6732 351.281C51.5626 352.146 51.1138 353.665 51.5615 355.037L54.172 363.033C52.8812 364.816 51.7722 366.754 50.8718 368.83L42.883 370.291C41.5305 370.539 40.4821 371.668 40.2825 373.092L39.5184 378.542C39.3171 379.977 40.0239 381.384 41.2663 382.023L48.506 385.742L48.5066 385.744C48.7997 387.998 49.3353 390.196 50.0827 392.287L45.4195 399.242C44.6298 400.42 44.6504 401.995 45.4696 403.15L48.6056 407.57C49.4309 408.734 50.8796 409.205 52.1888 408.736L59.8245 405.996C61.5202 407.349 63.3632 408.511 65.3397 409.448L65.3452 409.449L66.7411 417.833C66.9769 419.251 68.0542 420.35 69.4122 420.559L74.6115 421.36C75.9802 421.571 77.3227 420.83 77.9311 419.528L81.4804 411.936C81.4815 411.936 81.4831 411.935 81.4843 411.935C83.6348 411.628 85.7259 411.071 87.7152 410.286C87.7169 410.285 87.7185 410.285 87.7207 410.284L94.3582 415.174C95.4816 416.002 96.9843 415.98 98.086 415.122L102.303 411.834C103.413 410.969 103.862 409.451 103.414 408.078L100.804 400.081C102.094 398.299 103.203 396.361 104.103 394.285L112.093 392.824C113.446 392.576 114.495 391.448 114.694 390.023L115.458 384.574C115.658 383.137 114.952 381.73 113.709 381.092ZM74.448 403.249C63.02 401.488 55.1163 390.347 56.7963 378.368C58.4764 366.388 69.1041 358.103 80.5321 359.864C91.9601 361.625 99.8578 372.765 98.1777 384.744C96.4977 396.725 85.876 405.011 74.448 403.249Z" fill="#C2E5FF"/>
<path d="M79.143 369.741C72.9176 368.782 67.1293 373.294 66.2145 379.82C65.2991 386.346 69.6042 392.413 75.829 393.373C82.0543 394.332 87.8426 389.82 88.758 383.294C89.6734 376.768 85.3683 370.7 79.143 369.741Z" fill="#C2E5FF"/>
<path d="M451.934 384.644C452.937 383.035 452.797 380.824 451.846 379.184C450.895 377.545 449.245 376.444 447.493 375.892C445.739 375.339 443.878 375.288 442.048 375.377C439.02 375.524 435.917 376.088 433.269 377.58C434.634 373.142 436.326 368.814 438.327 364.642C438.509 364.262 438.697 363.886 438.884 363.51C441.612 365.209 444.34 366.908 447.068 368.607C448.888 369.741 450.765 370.897 452.859 371.237C454.952 371.577 457.339 370.909 458.498 369.048C459.501 367.439 459.361 365.228 458.41 363.588C457.459 361.949 455.81 360.848 454.057 360.296C452.304 359.743 450.442 359.692 448.613 359.781C445.49 359.932 442.285 360.528 439.585 362.127C441.939 357.57 444.656 353.22 447.702 349.139C450.528 350.75 453.356 352.36 456.183 353.97C458.043 355.03 459.962 356.109 462.066 356.365C464.17 356.62 466.531 355.857 467.622 353.951C468.564 352.303 468.344 350.099 467.334 348.499C466.323 346.899 464.635 345.866 462.863 345.384C461.091 344.903 459.229 344.927 457.403 345.089C454.481 345.349 451.501 346 448.964 347.488C451.231 344.59 453.664 341.833 456.255 339.247C457.022 338.482 457.807 337.737 458.601 337.003C461.561 338.559 464.52 340.115 467.479 341.671C469.372 342.666 471.324 343.679 473.435 343.861C475.546 344.043 477.882 343.2 478.912 341.257C479.803 339.578 479.513 337.383 478.454 335.819C477.394 334.255 475.674 333.28 473.888 332.86C472.102 332.44 470.241 332.528 468.422 332.753C465.822 333.074 463.188 333.711 460.882 334.963C463.658 332.576 466.579 330.375 469.628 328.38C472.854 328.274 476.081 328.167 479.307 328.061C481.425 327.991 483.603 327.908 485.544 327.015C487.485 326.121 489.158 324.214 489.183 321.994C489.205 320.074 487.954 318.289 486.31 317.444C484.668 316.598 482.711 316.6 480.948 317.121C479.184 317.644 477.587 318.649 476.087 319.754C473.324 321.79 470.746 324.316 469.337 327.511C469.326 327.517 469.316 327.521 469.306 327.528C466.058 329.644 462.954 331.996 460.012 334.553C461.393 332.092 462.121 329.211 462.518 326.362C462.782 324.462 462.918 322.513 462.567 320.63C462.216 318.746 461.335 316.916 459.873 315.762C458.411 314.608 456.326 314.243 454.7 315.13C452.819 316.155 451.95 318.581 452.065 320.798C452.18 323.016 453.092 325.09 453.988 327.1C455.352 330.163 456.718 333.226 458.082 336.289C454.572 339.529 451.314 343.07 448.345 346.862C449.223 344.001 449.267 340.857 448.962 337.842C448.769 335.932 448.439 334.011 447.653 332.278C446.867 330.546 445.579 329.003 443.889 328.266C442.199 327.529 440.092 327.718 438.727 329C437.147 330.483 436.879 333.057 437.516 335.174C438.152 337.291 439.526 339.062 440.871 340.776C442.918 343.386 444.964 345.995 447.012 348.605C446.921 348.726 446.828 348.846 446.737 348.968C443.784 352.972 441.145 357.227 438.846 361.674C439.432 358.363 438.842 354.883 437.856 351.653C437.299 349.825 436.605 348.014 435.5 346.485C434.395 344.955 432.836 343.719 431.038 343.355C429.24 342.992 427.213 343.625 426.123 345.17C424.862 346.957 425.096 349.534 426.129 351.472C427.161 353.409 428.85 354.851 430.498 356.243C433.088 358.432 435.677 360.62 438.267 362.809C438.236 362.871 438.206 362.934 438.175 362.997L438.081 363.007C438.103 363.021 438.126 363.035 438.148 363.05C435.98 367.416 434.14 371.959 432.661 376.634C432.03 373.681 430.551 370.923 428.833 368.458C427.733 366.879 426.506 365.362 424.969 364.255C423.431 363.148 421.544 362.477 419.694 362.73C417.844 362.982 416.079 364.274 415.499 366.133C414.828 368.283 415.845 370.695 417.438 372.22C419.031 373.746 421.106 374.572 423.127 375.365C425.997 376.49 428.868 377.615 431.738 378.741C431.818 378.791 431.898 378.841 431.978 378.89C430.479 384.083 429.431 389.413 428.868 394.806C428.808 395.375 429.645 395.582 429.706 395.004C430.26 389.702 431.283 384.467 432.741 379.365C435.329 380.977 437.916 382.589 440.505 384.201C442.325 385.335 444.202 386.491 446.296 386.831C448.388 387.172 450.775 386.505 451.934 384.644Z" fill="#83A044"/>
<path d="M466.443 459.242C464.079 462.271 457.383 460.052 454.561 459.108C451.361 458.032 446.613 455.865 440.256 449.702C436.982 446.524 432.615 442.291 428.93 435.777C428.775 435.49 428.611 435.209 428.459 434.909C427.939 433.957 427.441 432.966 426.964 431.915C425.616 428.944 416.979 409.96 425.226 395.941C425.617 395.271 430.544 387.065 435.321 387.94C441.26 389.031 442.799 403.412 445.566 403.035C446.94 402.847 446.931 399.265 448.319 395.096C451.423 385.765 460.696 375.928 468.934 377.291C472.83 377.934 476.603 381.109 478.059 385.378C480.399 392.262 472.92 400.029 473.617 400.576C474.61 401.344 484.447 382.677 495.958 383.211C500.015 383.402 504.625 385.983 505.498 389.48C506.793 394.623 499.51 399.602 500.83 401.738C502.227 403.989 510.099 398.108 520.47 400.014C523.127 400.501 529.292 401.635 531.736 406.722C533.865 411.133 532.71 417.047 529.453 420.552C526.436 423.8 522.372 424.152 521.276 424.221C514.077 424.741 511.649 419.107 500.282 416.003C496.308 414.919 491.768 414.279 491.203 415.609C490.776 416.618 493.002 417.802 494.482 421.25C494.513 421.322 494.56 421.422 494.615 421.574C495.054 422.637 496.602 426.45 495.183 430.068C495.123 430.234 493.527 434.163 490.468 434.632C488.889 434.87 487.593 434.097 487.002 433.75C481.256 430.422 473.102 428.129 472.509 429.103C471.829 430.215 481.127 435.493 480.129 439.682C479.301 443.167 471.825 443.958 470.875 444.05C462.834 444.828 456.204 440.65 455.963 441.213C455.739 441.73 461.785 443.617 465.075 449.297C466.616 451.946 468.353 456.796 466.443 459.242Z" fill="#687F29"/>
<path d="M475.347 425.397C475.08 425.475 474.864 425.296 474.76 425.059C473.961 423.128 472.481 421.561 470.691 420.647C470.652 420.637 470.632 420.603 470.61 420.583C470.477 420.528 470.344 420.472 470.212 420.416C467.519 419.215 464.71 417.854 461.708 418.288C461.692 418.299 461.674 418.287 461.661 418.283C461.641 418.308 461.622 418.331 461.605 418.342C461.199 418.601 460.71 418.738 460.236 418.749C457.861 420.032 455.522 421.375 453.183 422.74C454.733 423.374 456.45 423.586 458.092 423.285C458.345 423.241 458.597 423.348 458.679 423.623C458.74 423.865 458.604 424.185 458.351 424.229C456.318 424.605 454.238 424.344 452.357 423.466C452.282 423.433 452.231 423.383 452.191 423.315C449.506 424.89 446.831 426.481 444.14 428.025C441.421 429.598 438.664 431.126 435.869 432.549C437.702 434.053 439.531 435.666 441.55 436.877C443.52 438.061 446.038 438.73 448.118 437.437C448.643 437.114 449.133 437.957 448.613 438.29C447.013 439.276 445.165 439.3 443.441 438.788C444.176 440.398 444.643 442.122 444.777 443.906C444.824 444.542 443.872 444.554 443.831 443.926C443.684 441.986 443.136 440.105 442.212 438.417C442.192 438.383 442.193 438.347 442.182 438.308C441.987 438.222 441.805 438.139 441.622 438.035C440.439 437.4 439.364 436.568 438.306 435.725C437.175 434.834 436.044 433.922 434.916 433.018C432.949 434.005 430.955 434.928 428.93 435.778C428.775 435.491 428.611 435.21 428.459 434.91C429.278 434.574 430.095 434.215 430.908 433.849C430.511 432.688 430.967 431.439 431.542 430.453C432.131 429.434 432.971 428.407 432.901 427.155C432.876 426.516 433.815 426.501 433.848 427.134C433.912 428.414 433.246 429.494 432.606 430.521C432.081 431.382 431.518 432.408 431.785 433.441C432.77 432.988 433.752 432.511 434.73 432.027L434.738 432.022C438.184 430.3 441.553 428.406 444.892 426.461C444.885 426.43 444.878 426.399 444.88 426.363C445.271 422.76 447.316 419.701 449.556 417.055C449.845 416.707 450.152 416.371 450.445 416.032C450.418 415.967 450.392 415.902 450.391 415.844C448.101 413.112 446.398 409.913 445.402 406.436C445.225 405.824 446.126 405.553 446.303 406.164C447.271 409.517 448.916 412.615 451.133 415.242C451.133 415.242 451.133 415.242 451.138 415.25C451.953 414.333 452.769 413.415 453.533 412.447C454.624 411.084 455.612 409.601 455.83 407.791C455.9 407.162 456.82 407.404 456.746 408.024C456.542 409.743 455.665 411.226 454.664 412.554C453.474 414.132 452.132 415.562 450.841 417.041C448.634 419.571 446.533 422.421 445.924 425.859C446.573 425.48 447.213 425.106 447.854 424.731C455.185 420.412 462.522 416.006 470.367 412.782C470.553 412.699 470.749 412.632 470.939 412.558C471.47 411.669 471.996 410.773 472.52 409.889C472.851 409.327 473.349 408.612 473.165 407.912C473.017 407.293 473.924 407.03 474.079 407.644C474.301 408.543 473.919 409.382 473.48 410.141C473.115 410.76 472.742 411.384 472.377 412.002C475.724 410.741 479.157 409.706 482.647 409.018C482.645 408.996 482.64 408.988 482.639 408.966C482.75 407.469 483.512 406.212 484.472 405.119C485.517 403.926 486.8 402.932 487.61 401.526C487.925 400.974 488.757 401.448 488.443 401.999C487.675 403.343 486.531 404.33 485.487 405.429C484.613 406.361 483.75 407.485 483.597 408.832C486.676 408.28 489.789 407.998 492.917 408.068C493.529 408.086 493.548 409.078 492.936 409.06C491.965 409.038 490.995 409.038 490.029 409.083C482.098 409.417 474.386 411.911 467.16 415.241C465.801 415.876 464.441 416.546 463.103 417.237C465.426 417.283 467.665 418.201 469.792 419.156C472.423 420.327 475.264 421.667 478.197 421.114C478.791 421.003 479.054 421.956 478.453 422.072C476.832 422.372 475.252 422.165 473.71 421.737C474.532 422.614 475.2 423.648 475.671 424.784C475.77 425.033 475.563 425.328 475.347 425.397Z" fill="white"/>
<path d="M106.909 105.642C105.906 104.033 106.046 101.822 106.997 100.182C107.948 98.5429 109.598 97.4416 111.35 96.8896C113.104 96.3375 114.965 96.2862 116.795 96.3748C119.823 96.5217 122.926 97.0866 125.574 98.5779C124.209 94.1402 122.517 89.8116 120.516 85.6398C120.334 85.2603 120.146 84.8843 119.959 84.5077C117.231 86.2071 114.503 87.9064 111.775 89.6058C109.955 90.7397 108.078 91.8958 105.984 92.2356C103.891 92.5749 101.504 91.9074 100.345 90.0466C99.3424 88.4381 99.482 86.2263 100.433 84.587C101.384 82.9476 103.033 81.847 104.786 81.2943C106.539 80.7422 108.401 80.6909 110.23 80.7795C113.353 80.9311 116.558 81.5263 119.259 83.1254C116.905 78.5683 114.188 74.2187 111.142 70.1378C108.315 71.7486 105.488 73.3588 102.661 74.9696C100.801 76.0294 98.8814 77.1091 96.7775 77.3638C94.6731 77.6186 92.3123 76.8561 91.2217 74.9497C90.2791 73.3022 90.4999 71.098 91.5098 69.4983C92.5198 67.8986 94.2082 66.865 95.9806 66.3834C97.7524 65.9019 99.6149 65.9258 101.44 66.0879C104.362 66.3479 107.342 66.9991 109.879 68.4874C107.612 65.5888 105.179 62.8325 102.588 60.2464C101.821 59.481 101.036 58.7365 100.242 58.0025C97.2825 59.5585 94.3233 61.1145 91.3636 62.6699C89.471 63.665 87.519 64.6782 85.4079 64.8601C83.2968 65.0426 80.9611 64.199 79.9306 62.2565C79.0402 60.5775 79.3299 58.382 80.3894 56.8185C81.4494 55.2544 83.1695 54.279 84.9552 53.8593C86.7415 53.439 88.6024 53.527 90.4215 53.752C93.0208 54.0732 95.6547 54.7104 97.961 55.9621C95.1848 53.5742 92.2639 51.374 89.2152 49.3791C85.9891 49.273 82.7624 49.1657 79.5363 49.0596C77.4191 48.9897 75.2407 48.9063 73.2998 48.0132C71.3583 47.12 69.6855 45.2131 69.6604 42.9926C69.6387 41.0728 70.89 39.2877 72.5329 38.4424C74.1757 37.5965 76.1322 37.5983 77.8951 38.12C79.6586 38.6424 81.2564 39.6474 82.7557 40.7528C85.518 42.7891 88.0968 45.3146 89.5061 48.5099C89.5166 48.5157 89.5267 48.5192 89.5367 48.5256C92.785 50.6424 95.8894 52.9936 98.8308 55.5511C97.4505 53.0898 96.7225 50.2087 96.3254 47.3597C96.0607 45.4597 95.925 43.5114 96.2759 41.6278C96.6268 39.7442 97.5083 37.9142 98.9704 36.7599C100.432 35.6056 102.517 35.2413 104.143 36.128C106.024 37.1534 106.893 39.5786 106.778 41.7963C106.663 44.0139 105.751 46.0876 104.855 48.0983C103.49 51.1613 102.125 54.2237 100.761 57.2866C104.271 60.5274 107.529 64.0684 110.498 67.8601C109.62 64.9989 109.576 61.8549 109.881 58.8397C110.074 56.9304 110.404 55.0095 111.19 53.2763C111.976 51.5437 113.264 50.0011 114.954 49.2643C116.644 48.5268 118.75 48.7168 120.116 49.9982C121.695 51.4807 121.964 54.0552 121.327 56.172C120.69 58.2894 119.316 60.0599 117.971 61.7744C115.924 64.3838 113.878 66.9932 111.831 69.6026C111.922 69.7245 112.014 69.844 112.105 69.9658C115.058 73.9703 117.697 78.2255 119.996 82.6725C119.409 79.3611 120 75.8807 120.985 72.651C121.543 70.8234 122.237 69.0121 123.342 67.4829C124.447 65.9532 126.006 64.7167 127.804 64.3535C129.602 63.9903 131.629 64.6234 132.719 66.1683C133.98 67.9546 133.745 70.5319 132.713 72.4697C131.68 74.407 129.992 75.8493 128.343 77.242C125.753 79.4305 123.164 81.619 120.574 83.8075C120.605 83.8699 120.636 83.9328 120.667 83.9958L120.761 84.0057C120.738 84.0197 120.716 84.0337 120.693 84.0483C122.861 88.4142 124.701 92.9574 126.18 97.6323C126.812 94.6801 128.29 91.9214 130.008 89.456C131.109 87.8773 132.336 86.3604 133.873 85.2533C135.41 84.1462 137.297 83.4752 139.147 83.7276C140.997 83.9801 142.763 85.2725 143.343 87.1311C144.014 89.2811 142.997 91.6929 141.403 93.218C139.81 94.7436 137.735 95.5697 135.714 96.362C132.844 97.4877 129.973 98.6128 127.103 99.7386C127.023 99.7887 126.943 99.8383 126.863 99.8878C128.362 105.08 129.41 110.41 129.973 115.803C130.033 116.373 129.196 116.579 129.135 116.002C128.581 110.7 127.557 105.464 126.1 100.362C123.512 101.974 120.924 103.587 118.336 105.199C116.516 106.332 114.638 107.489 112.545 107.829C110.455 108.17 108.068 107.503 106.909 105.642Z" fill="#83A044"/>
<path d="M92.3982 180.24C94.7623 183.269 101.458 181.05 104.28 180.106C107.48 179.03 112.228 176.863 118.585 170.7C121.859 167.522 126.226 163.289 129.911 156.775C130.066 156.488 130.23 156.207 130.382 155.907C130.902 154.955 131.399 153.964 131.876 152.913C133.225 149.942 141.862 130.958 133.614 116.939C133.223 116.269 128.297 108.063 123.519 108.938C117.58 110.029 116.042 124.41 113.275 124.033C111.901 123.845 111.91 120.264 110.521 116.094C107.419 106.763 98.1447 96.9263 89.9073 98.2893C86.011 98.9323 82.2382 102.107 80.7822 106.376C78.4425 113.26 85.9209 121.027 85.2235 121.574C84.2308 122.342 74.3939 103.675 62.8825 104.209C58.826 104.4 54.2162 106.982 53.3431 110.478C52.0479 115.621 59.3304 120.6 58.0107 122.736C56.6137 124.987 48.7416 119.106 38.3714 121.012C35.7142 121.499 29.5495 122.633 27.1052 127.72C24.9758 132.131 26.1303 138.045 29.3876 141.55C32.4046 144.798 36.4683 145.15 37.565 145.219C44.7636 145.739 47.1917 140.105 58.5585 137.001C62.5327 135.917 67.0729 135.277 67.6374 136.607C68.0651 137.616 65.8389 138.8 64.359 142.248C64.3273 142.321 64.2811 142.42 64.2261 142.572C63.7867 143.635 62.239 147.448 63.6583 151.066C63.7178 151.233 65.3133 155.161 68.3726 155.631C69.9515 155.868 71.2473 155.095 71.839 154.748C77.585 151.42 85.739 149.126 86.3319 150.101C87.012 151.213 77.714 156.491 78.7117 160.68C79.5398 164.165 87.0159 164.956 87.9652 165.048C96.0058 165.826 102.636 161.648 102.877 162.211C103.101 162.728 97.0558 164.615 93.7651 170.295C92.2247 172.944 90.4879 177.794 92.3982 180.24Z" fill="#687F29"/>
<path d="M83.4916 146.395C83.7585 146.472 83.9738 146.294 84.0783 146.057C84.8775 144.125 86.3568 142.559 88.147 141.645C88.1859 141.635 88.2059 141.601 88.2287 141.581C88.3617 141.525 88.494 141.469 88.6269 141.414C91.3197 140.213 94.1288 138.852 97.1308 139.286C97.1469 139.296 97.1647 139.284 97.1781 139.281C97.1975 139.305 97.217 139.329 97.2337 139.34C97.6402 139.599 98.1285 139.737 98.6023 139.747C100.978 141.03 103.317 142.372 105.656 143.738C104.106 144.372 102.389 144.584 100.747 144.283C100.494 144.238 100.242 144.346 100.16 144.621C100.098 144.862 100.235 145.182 100.488 145.227C102.521 145.603 104.601 145.341 106.482 144.463C106.557 144.43 106.608 144.381 106.647 144.312C109.332 145.888 112.007 147.479 114.699 149.023C117.418 150.596 120.175 152.123 122.97 153.546C121.137 155.051 119.308 156.663 117.29 157.874C115.32 159.058 112.802 159.728 110.722 158.435C110.197 158.112 109.707 158.955 110.227 159.287C111.827 160.274 113.674 160.298 115.398 159.786C114.663 161.396 114.196 163.119 114.062 164.903C114.016 165.539 114.968 165.552 115.009 164.924C115.155 162.984 115.703 161.102 116.628 159.415C116.648 159.381 116.646 159.345 116.658 159.306C116.852 159.22 117.034 159.137 117.218 159.033C118.401 158.398 119.475 157.565 120.533 156.722C121.664 155.832 122.796 154.919 123.923 154.016C125.89 155.003 127.884 155.925 129.909 156.775C130.064 156.489 130.229 156.208 130.38 155.908C129.561 155.572 128.744 155.213 127.932 154.847C128.328 153.686 127.872 152.437 127.297 151.451C126.708 150.432 125.868 149.404 125.938 148.153C125.964 147.514 125.025 147.499 124.991 148.132C124.927 149.412 125.593 150.491 126.233 151.519C126.758 152.38 127.321 153.406 127.055 154.439C126.07 153.985 125.087 153.509 124.109 153.025L124.101 153.02C120.655 151.298 117.286 149.404 113.948 147.458C113.954 147.427 113.961 147.397 113.959 147.361C113.568 143.757 111.523 140.699 109.283 138.052C108.994 137.704 108.688 137.369 108.395 137.029C108.421 136.965 108.448 136.9 108.448 136.842C110.738 134.11 112.442 130.91 113.437 127.433C113.615 126.822 112.713 126.55 112.537 127.161C111.568 130.515 109.924 133.613 107.706 136.239C107.706 136.239 107.706 136.239 107.701 136.248C106.886 135.33 106.071 134.413 105.307 133.445C104.215 132.082 103.227 130.598 103.009 128.788C102.94 128.16 102.019 128.401 102.094 129.021C102.298 130.741 103.175 132.224 104.175 133.552C105.365 135.129 106.707 136.559 107.999 138.038C110.206 140.569 112.306 143.418 112.916 146.857C112.267 146.478 111.626 146.103 110.985 145.729C103.654 141.409 96.3177 137.004 88.4718 133.78C88.286 133.696 88.0908 133.63 87.9001 133.555C87.3684 132.667 86.8423 131.77 86.319 130.886C85.9881 130.325 85.4898 129.61 85.6739 128.909C85.8218 128.29 84.9153 128.028 84.7596 128.641C84.5382 129.54 84.9197 130.379 85.3585 131.138C85.7234 131.757 86.0971 132.381 86.4613 132.999C83.1151 131.738 79.6821 130.703 76.1918 130.015C76.1934 129.993 76.1985 129.985 76.2001 129.963C76.0894 128.466 75.327 127.209 74.3671 126.117C73.3221 124.923 72.0391 123.929 71.2288 122.523C70.9141 121.972 70.0815 122.445 70.3969 122.996C71.1649 124.34 72.3083 125.327 73.3522 126.426C74.2264 127.358 75.0884 128.481 75.2413 129.829C72.1626 129.277 69.0499 128.995 65.9222 129.065C65.3099 129.083 65.2904 130.075 65.9027 130.057C66.8743 130.035 67.8437 130.035 68.8102 130.079C76.7412 130.412 84.4532 132.908 91.679 136.238C93.0382 136.872 94.3985 137.543 95.7354 138.233C93.4125 138.28 91.1735 139.198 89.0468 140.153C86.4158 141.324 83.575 142.664 80.642 142.111C80.048 142 79.7844 142.953 80.3861 143.069C82.0067 143.368 83.5867 143.162 85.1288 142.733C84.3069 143.611 83.639 144.644 83.1679 145.78C83.0684 146.03 83.2753 146.327 83.4916 146.395Z" fill="white"/>
<path d="M427.034 25.0342H135.356C130.466 25.0342 126.502 29.1564 126.502 34.2412V475.629C126.502 480.714 130.466 484.836 135.356 484.836H427.034C431.924 484.836 435.888 480.714 435.888 475.629V34.2412C435.888 29.1564 431.924 25.0342 427.034 25.0342Z" fill="#85C3E8"/>
<path d="M420.552 234.453L428.062 57.78L420.552 57.429V52.5139H315.321L162.332 45.3672L162.028 52.5139H154.558V61.7629L149.444 61.7885L150.623 320.8L144.545 463.785L151.275 464.099L151.35 480.616L417.342 479.287L417.305 471.346H420.552V234.453Z" fill="#E6E6E6"/>
<path d="M409.086 53.4497L143.092 54.7881L145.01 473.621L411.004 472.282L409.086 53.4497Z" fill="#D0D8DD"/>
<path d="M155.959 38.3753L138.18 456.789L403.908 469.197L421.687 50.7834L155.959 38.3753Z" fill="#E6EBEF"/>
<path d="M414.193 45.5186H148.199V464.351H414.193V45.5186Z" fill="white"/>
<path d="M347.852 24.3047V48.1678C347.852 52.6176 344.411 56.2245 340.166 56.2245H222.223C217.978 56.2245 214.538 52.6177 214.538 48.1684V24.3047H210.596V48.9326C210.596 55.2416 215.475 60.3555 221.493 60.3555H340.896C346.914 60.3555 351.793 55.2416 351.793 48.9326V24.3047H347.852Z" fill="#276491"/>
<path d="M281.195 0C275.241 0 270.414 5.06026 270.414 11.3016V31.1101H291.976V11.3016C291.976 5.06026 287.15 0 281.195 0ZM281.195 15.5545C278.698 15.5545 276.674 13.4324 276.674 10.8154C276.674 8.19785 278.699 6.07581 281.195 6.07581C283.692 6.07581 285.717 8.19785 285.717 10.8154C285.717 13.433 283.692 15.5545 281.195 15.5545Z" fill="#276491"/>
<path d="M351.524 31.1104H210.867C207.879 31.1104 205.457 28.5715 205.457 25.4392C205.457 22.3068 207.88 19.7686 210.867 19.7686H351.524C354.512 19.7686 356.934 22.3074 356.934 25.4392C356.934 28.571 354.512 31.1104 351.524 31.1104Z" fill="#276491"/>
<path d="M301.446 62.6898H263.729C263.516 62.6898 263.344 62.509 263.344 62.2863V54.0343C263.344 53.8116 263.516 53.6309 263.729 53.6309H301.446C301.659 53.6309 301.831 53.8116 301.831 54.0343V62.2863C301.832 62.509 301.659 62.6898 301.446 62.6898Z" fill="#276491"/>
<path d="M396.087 149.049H166.303V72.2451H396.088L396.087 149.049ZM167.415 147.883H394.976V73.4111H167.415V147.883Z" fill="#D1D7DB"/>
<path d="M215.55 125.784H197.978L194.637 136.29H183.98L202.087 85.3008H211.374L229.581 136.29H218.924L215.55 125.784ZM200.684 117.274H212.844L206.73 98.1887L200.684 117.274Z" fill="#DD4747"/>
<path d="M270.372 85.3008V118.885C270.372 124.465 268.707 128.878 265.378 132.122C262.048 135.368 257.499 136.989 251.731 136.989C246.052 136.989 241.541 135.414 238.201 132.262C234.86 129.11 233.157 124.78 233.09 119.27V85.3008H243.112V118.955C243.112 122.294 243.875 124.728 245.4 126.257C246.925 127.786 249.036 128.551 251.731 128.551C257.365 128.551 260.227 125.446 260.316 119.235V85.3014H270.372V85.3008Z" fill="#DD4747"/>
<path d="M278.59 136.29V85.3008H293.557C297.832 85.3008 301.658 86.3111 305.032 88.3299C308.406 90.35 311.039 93.2211 312.932 96.9452C314.825 100.669 315.772 104.901 315.772 109.64V111.986C315.772 116.726 314.841 120.939 312.982 124.628C311.123 128.317 308.5 131.177 305.115 133.208C301.729 135.239 297.91 136.267 293.656 136.289H278.59V136.29ZM288.612 93.8111V127.85H293.456C297.375 127.85 300.371 126.508 302.442 123.823C304.513 121.138 305.571 117.298 305.616 112.301V109.605C305.616 104.422 304.591 100.494 302.543 97.8208C300.493 95.1479 297.498 93.8111 293.556 93.8111H288.612Z" fill="#DD4747"/>
<path d="M333.712 136.29H323.689V85.3008H333.712V136.29Z" fill="#DD4747"/>
<path d="M378.644 93.8115H363.745V136.29H353.723V93.8115H339.023V85.3018H378.644V93.8115Z" fill="#DD4747"/>
<path d="M395.849 416.148H166.543V417.679H395.849V416.148Z" fill="#D0E0EF"/>
<path d="M395.849 425.385H166.543V426.916H395.849V425.385Z" fill="#D0E0EF"/>
<path d="M341.42 434.621H166.543V436.152H341.42V434.621Z" fill="#D0E0EF"/>
<path d="M395.849 232.74H166.543V234.271H395.849V232.74Z" fill="#D0E0EF"/>
<path d="M395.849 241.978H166.543V243.508H395.849V241.978Z" fill="#D0E0EF"/>
<path d="M341.42 251.214H166.543V252.745H341.42V251.214Z" fill="#D0E0EF"/>
<path d="M273.854 443.858H166.543V445.389H273.854V443.858Z" fill="#D0E0EF"/>
<path d="M395.847 390.664H302.723V391.993H395.847V390.664Z" fill="#D0E0EF"/>
<path d="M395.848 391.992V286.136H394.58V391.992H395.848Z" fill="#D0E0EF"/>
<path d="M318.118 352.445H312.521V384.148H318.118V352.445Z" fill="#FFBF61"/>
<path d="M329.438 332.001H323.842V384.148H329.438V332.001Z" fill="#83A044"/>
<path d="M340.762 359.557H335.166V384.149H340.762V359.557Z" fill="#DD4747"/>
<path d="M352.085 316.298H346.488V384.148H352.085V316.298Z" fill="#FFBF61"/>
<path d="M363.407 334.964H357.811V384.148H363.407V334.964Z" fill="#83A044"/>
<path d="M374.731 318.668H369.135V384.148H374.731V318.668Z" fill="#DD4747"/>
<path d="M386.053 294.372H380.457V384.148H386.053V294.372Z" fill="#FFBF61"/>
<path d="M259.668 390.665H166.543V391.994H259.668V390.665Z" fill="#D0E0EF"/>
<path d="M259.668 391.994V286.137H258.401V391.994H259.668Z" fill="#D0E0EF"/>
<path d="M181.936 339.262H176.34V384.15H181.936V339.262Z" fill="#DD4747"/>
<path d="M193.258 358.076H187.662V384.15H193.258V358.076Z" fill="#83A044"/>
<path d="M204.582 314.815H198.986V384.15H204.582V314.815Z" fill="#FFBF61"/>
<path d="M215.905 290.29H210.309V384.15H215.905V290.29Z" fill="#83A044"/>
<path d="M227.227 330.565H221.631V384.15H227.227V330.565Z" fill="#DD4747"/>
<path d="M238.551 301.271H232.955V384.149H238.551V301.271Z" fill="#83A044"/>
<path d="M249.874 319.444H244.277V384.15H249.874V319.444Z" fill="#FFBF61"/>
<path d="M197.463 218.883C191.2 218.883 185.227 216.607 180.473 212.441L197.741 193.405L219.298 206.863C217.067 210.26 214.12 213.118 210.699 215.185C206.696 217.604 202.119 218.883 197.463 218.883Z" fill="#FFBF61"/>
<path d="M198.746 190.034V164.157C212.06 164.988 222.752 176.143 223.552 190.034H198.746Z" fill="#FFBF61"/>
<path d="M200.154 192.115H223.553C223.299 196.5 222.168 200.774 220.237 204.652L200.154 192.115Z" fill="#DD4747"/>
<path d="M178.977 210.569C174.362 205.442 171.838 198.806 171.838 191.707C171.838 177.047 182.849 165.021 196.694 164.157V191.038L178.977 210.569Z" fill="#83A044"/>
<path d="M310.324 191.862C310.324 207.156 298.492 219.56 283.895 219.56C269.297 219.56 257.465 207.156 257.465 191.862H283.895L269.191 168.833C273.395 165.88 278.448 164.156 283.895 164.156C298.492 164.156 310.324 176.56 310.324 191.862Z" fill="#FFBF61"/>
<path d="M390.437 191.862C390.437 207.156 378.604 219.56 364.007 219.56C356.621 219.56 349.94 216.384 345.145 211.262L365.408 192.14V192.132L372.438 165.594C382.899 169.286 390.437 179.649 390.437 191.862Z" fill="#DD4747"/>
<path d="M370.254 164.934L363.891 188.963L353.172 166.578C356.475 165.021 360.141 164.156 364.004 164.156C366.156 164.156 368.254 164.426 370.254 164.934Z" fill="#FFBF61"/>
<path d="M362.595 191.584L343.619 209.491C339.847 204.702 337.574 198.564 337.574 191.862C337.574 181.452 343.051 172.383 351.149 167.65L362.595 191.584Z" fill="#83A044"/>
<path d="M278.494 189.176H252.064C252.064 179.575 256.723 171.119 263.791 166.147L278.494 189.176Z" fill="#DD4747"/>
<path d="M198.333 263.975C221.607 239.577 221.607 200.02 198.333 175.622C175.058 151.224 137.323 151.224 114.048 175.622C90.774 200.02 90.774 239.577 114.048 263.975C137.323 288.373 175.058 288.373 198.333 263.975Z" fill="#D3E4F2"/>
<path d="M178.122 153.011C142.841 140.564 104.521 160.394 92.6989 197.215C80.8777 234.036 99.9631 274.118 135.245 286.565C170.527 299.012 208.846 279.182 220.668 242.361C232.489 205.54 213.404 165.458 178.122 153.011ZM138.543 276.292C108.642 265.743 92.5243 231.894 102.543 200.687C112.562 169.482 144.923 152.735 174.824 163.284C204.725 173.833 220.843 207.683 210.825 238.888C200.806 270.095 168.444 286.841 138.543 276.292Z" fill="#276491"/>
<path d="M146.414 282.52L128.689 276.267L122.75 294.765L140.475 301.018L146.414 282.52Z" fill="#276491"/>
<path d="M95.4731 471.131C92.4677 481.559 81.8072 487.303 71.9197 483.815C62.0322 480.326 56.844 468.991 60.4739 458.784L109.638 320.464L112.372 312.758L114.433 306.982L117.167 299.276L120.591 289.646L145.143 298.307L142.316 308.148L140.048 316.019L138.36 321.926L136.093 329.796L95.4731 471.131Z" fill="#276491"/>
<path d="M140.047 316.019L114.432 306.982L117.166 299.275L142.314 308.148L140.047 316.019Z" fill="#FFBF61"/>
<path d="M136.091 329.796L109.637 320.463L112.371 312.757L138.359 321.925L136.091 329.796Z" fill="#FFBF61"/>
<path d="M145.203 178.675C128.203 184.344 118.406 199.221 116.173 197.215C113.821 195.102 122.084 177.658 142.999 171.58C161.573 166.183 180.483 172.055 179.005 175.616C177.993 178.058 161.722 173.166 145.203 178.675Z" fill="white"/>
<path d="M115.636 202.475C116.493 204.276 115.793 206.457 114.071 207.347C112.35 208.238 110.26 207.5 109.403 205.7C108.546 203.9 109.246 201.719 110.968 200.828C112.688 199.937 114.779 200.675 115.636 202.475Z" fill="white"/>
<path d="M465.68 247.739L464.598 241.943C464.58 241.848 464.51 241.772 464.42 241.752L458.915 240.498C458.669 240.442 458.673 240.074 458.919 240.023L464.448 238.888C464.539 238.87 464.611 238.796 464.63 238.702L465.826 232.93C465.879 232.673 466.231 232.677 466.279 232.935L467.361 238.731C467.379 238.826 467.449 238.901 467.539 238.922L473.045 240.175C473.291 240.231 473.287 240.6 473.041 240.65L467.511 241.785C467.421 241.803 467.349 241.877 467.33 241.971L466.134 247.743C466.08 248.002 465.729 247.998 465.68 247.739Z" fill="#FFBF61"/>
<path d="M69.3623 320.158L68.2801 314.362C68.2623 314.267 68.1922 314.192 68.1021 314.171L62.5964 312.918C62.3506 312.862 62.3545 312.493 62.6009 312.443L68.13 311.308C68.2206 311.29 68.2923 311.216 68.3118 311.122L69.5081 305.35C69.5614 305.093 69.9129 305.097 69.9613 305.355L71.0435 311.151C71.0613 311.246 71.1314 311.321 71.2215 311.342L76.7272 312.595C76.973 312.651 76.9692 313.019 76.7228 313.07L71.1937 314.205C71.1031 314.223 71.0313 314.297 71.0118 314.391L69.8162 320.162C69.7628 320.42 69.4107 320.417 69.3623 320.158Z" fill="#FFBF61"/>
<path d="M518.118 346.502L517.563 343.533C517.554 343.484 517.518 343.446 517.472 343.435L514.652 342.793C514.526 342.764 514.528 342.576 514.654 342.549L517.487 341.968C517.533 341.959 517.569 341.921 517.579 341.873L518.192 338.916C518.22 338.784 518.4 338.786 518.425 338.919L518.979 341.888C518.988 341.936 519.024 341.975 519.07 341.985L521.891 342.627C522.016 342.656 522.015 342.845 521.888 342.871L519.056 343.452C519.01 343.462 518.973 343.5 518.963 343.548L518.351 346.504C518.322 346.636 518.142 346.634 518.118 346.502Z" fill="#FFBF61"/>
<path d="M504.54 133.852L503.985 130.882C503.976 130.834 503.94 130.796 503.894 130.785L501.074 130.143C500.948 130.114 500.95 129.925 501.076 129.899L503.908 129.318C503.955 129.308 503.991 129.271 504.001 129.222L504.614 126.266C504.641 126.134 504.821 126.136 504.846 126.268L505.401 129.237C505.409 129.286 505.446 129.324 505.492 129.335L508.312 129.977C508.438 130.006 508.436 130.195 508.31 130.221L505.477 130.802C505.431 130.811 505.394 130.849 505.384 130.898L504.772 133.854C504.744 133.986 504.564 133.984 504.54 133.852Z" fill="#FFBF61"/>
<path d="M25.8717 227.742L25.3172 224.773C25.3083 224.724 25.2722 224.686 25.226 224.676L22.4059 224.033C22.2802 224.005 22.2819 223.816 22.4081 223.79L25.2405 223.208C25.2872 223.199 25.3233 223.161 25.3334 223.113L25.9462 220.156C25.9735 220.025 26.1537 220.026 26.1787 220.159L26.7331 223.128C26.742 223.176 26.7782 223.215 26.8244 223.225L29.6445 223.868C29.7702 223.896 29.7685 224.085 29.6423 224.111L26.8099 224.693C26.7632 224.702 26.727 224.74 26.717 224.788L26.1042 227.745C26.0769 227.876 25.8967 227.875 25.8717 227.742Z" fill="#FFBF61"/>
<path d="M550 484.836H0V486.163H550V484.836Z" fill="#D0E0EF"/>
<path d="M392.28 498.673H282.328V500H392.28V498.673Z" fill="#D0E0EF"/>
<path d="M438.889 498.673H407.057V500H438.889V498.673Z" fill="#D0E0EF"/>
</svg>
